<mxfile host="Electron" agent="Mozilla/5.0 (Windows NT 10.0; Win64; x64) AppleWebKit/537.36 (KHTML, like Gecko) draw.io/24.7.5 Chrome/126.0.6478.183 Electron/31.3.0 Safari/537.36" version="24.7.5">
  <diagram name="Page-1" id="LxCCWSw9EynwJYbkCdg3">
    <mxGraphModel dx="955" dy="859" grid="1" gridSize="10" guides="1" tooltips="1" connect="1" arrows="1" fold="1" page="1" pageScale="1" pageWidth="827" pageHeight="1169" math="0" shadow="0">
      <root>
        <mxCell id="0" />
        <mxCell id="1" parent="0" />
        <mxCell id="wWJ5AksdK7FbZfd5aGCc-6" style="edgeStyle=orthogonalEdgeStyle;rounded=0;orthogonalLoop=1;jettySize=auto;html=1;entryX=0.5;entryY=1;entryDx=0;entryDy=0;" edge="1" parent="1" source="wWJ5AksdK7FbZfd5aGCc-1" target="wWJ5AksdK7FbZfd5aGCc-3">
          <mxGeometry relative="1" as="geometry" />
        </mxCell>
        <mxCell id="wWJ5AksdK7FbZfd5aGCc-59" style="edgeStyle=orthogonalEdgeStyle;rounded=0;orthogonalLoop=1;jettySize=auto;html=1;exitX=0;exitY=0.75;exitDx=0;exitDy=0;entryX=0.5;entryY=0;entryDx=0;entryDy=0;" edge="1" parent="1" source="wWJ5AksdK7FbZfd5aGCc-1" target="wWJ5AksdK7FbZfd5aGCc-58">
          <mxGeometry relative="1" as="geometry">
            <Array as="points">
              <mxPoint x="350" y="695" />
              <mxPoint x="350" y="750" />
              <mxPoint x="170" y="750" />
            </Array>
          </mxGeometry>
        </mxCell>
        <mxCell id="wWJ5AksdK7FbZfd5aGCc-1" value="DSP 数字信号处理器" style="whiteSpace=wrap;html=1;aspect=fixed;" vertex="1" parent="1">
          <mxGeometry x="380" y="635" width="80" height="80" as="geometry" />
        </mxCell>
        <mxCell id="wWJ5AksdK7FbZfd5aGCc-44" style="edgeStyle=orthogonalEdgeStyle;rounded=0;orthogonalLoop=1;jettySize=auto;html=1;exitX=1;exitY=0.75;exitDx=0;exitDy=0;entryX=0;entryY=0.5;entryDx=0;entryDy=0;" edge="1" parent="1" source="wWJ5AksdK7FbZfd5aGCc-2" target="wWJ5AksdK7FbZfd5aGCc-1">
          <mxGeometry relative="1" as="geometry">
            <Array as="points">
              <mxPoint x="315" y="710" />
              <mxPoint x="315" y="675" />
            </Array>
          </mxGeometry>
        </mxCell>
        <mxCell id="wWJ5AksdK7FbZfd5aGCc-2" value="4channel-5Msps-ADC 模数转换器" style="whiteSpace=wrap;html=1;aspect=fixed;" vertex="1" parent="1">
          <mxGeometry x="170" y="650" width="80" height="80" as="geometry" />
        </mxCell>
        <mxCell id="wWJ5AksdK7FbZfd5aGCc-5" style="edgeStyle=orthogonalEdgeStyle;rounded=0;orthogonalLoop=1;jettySize=auto;html=1;exitX=0.5;exitY=0;exitDx=0;exitDy=0;entryX=0.5;entryY=1;entryDx=0;entryDy=0;" edge="1" parent="1" source="wWJ5AksdK7FbZfd5aGCc-3" target="wWJ5AksdK7FbZfd5aGCc-4">
          <mxGeometry relative="1" as="geometry" />
        </mxCell>
        <mxCell id="wWJ5AksdK7FbZfd5aGCc-3" value="推挽发射电路&lt;div&gt;同时驱动4路换能器&lt;/div&gt;" style="whiteSpace=wrap;html=1;aspect=fixed;" vertex="1" parent="1">
          <mxGeometry x="380" y="500" width="80" height="80" as="geometry" />
        </mxCell>
        <mxCell id="wWJ5AksdK7FbZfd5aGCc-17" style="edgeStyle=orthogonalEdgeStyle;rounded=0;orthogonalLoop=1;jettySize=auto;html=1;exitX=0;exitY=0.25;exitDx=0;exitDy=0;entryX=0.75;entryY=1;entryDx=0;entryDy=0;" edge="1" parent="1" source="wWJ5AksdK7FbZfd5aGCc-4" target="wWJ5AksdK7FbZfd5aGCc-12">
          <mxGeometry relative="1" as="geometry">
            <Array as="points">
              <mxPoint x="330" y="380" />
              <mxPoint x="330" y="340" />
              <mxPoint x="250" y="340" />
            </Array>
          </mxGeometry>
        </mxCell>
        <mxCell id="wWJ5AksdK7FbZfd5aGCc-18" style="edgeStyle=orthogonalEdgeStyle;rounded=0;orthogonalLoop=1;jettySize=auto;html=1;exitX=0.25;exitY=0;exitDx=0;exitDy=0;entryX=0.75;entryY=1;entryDx=0;entryDy=0;" edge="1" parent="1" source="wWJ5AksdK7FbZfd5aGCc-4" target="wWJ5AksdK7FbZfd5aGCc-7">
          <mxGeometry relative="1" as="geometry">
            <Array as="points">
              <mxPoint x="400" y="320" />
              <mxPoint x="360" y="320" />
            </Array>
          </mxGeometry>
        </mxCell>
        <mxCell id="wWJ5AksdK7FbZfd5aGCc-19" style="edgeStyle=orthogonalEdgeStyle;rounded=0;orthogonalLoop=1;jettySize=auto;html=1;exitX=0.75;exitY=0;exitDx=0;exitDy=0;entryX=0.75;entryY=1;entryDx=0;entryDy=0;" edge="1" parent="1" source="wWJ5AksdK7FbZfd5aGCc-4" target="wWJ5AksdK7FbZfd5aGCc-13">
          <mxGeometry relative="1" as="geometry">
            <Array as="points">
              <mxPoint x="440" y="320" />
              <mxPoint x="480" y="320" />
            </Array>
          </mxGeometry>
        </mxCell>
        <mxCell id="wWJ5AksdK7FbZfd5aGCc-20" style="edgeStyle=orthogonalEdgeStyle;rounded=0;orthogonalLoop=1;jettySize=auto;html=1;exitX=1;exitY=0.25;exitDx=0;exitDy=0;entryX=0.75;entryY=1;entryDx=0;entryDy=0;" edge="1" parent="1" source="wWJ5AksdK7FbZfd5aGCc-4" target="wWJ5AksdK7FbZfd5aGCc-14">
          <mxGeometry relative="1" as="geometry" />
        </mxCell>
        <mxCell id="wWJ5AksdK7FbZfd5aGCc-4" value="变压器升压&lt;div&gt;阻抗变换&lt;/div&gt;" style="whiteSpace=wrap;html=1;aspect=fixed;" vertex="1" parent="1">
          <mxGeometry x="380" y="360" width="80" height="80" as="geometry" />
        </mxCell>
        <mxCell id="wWJ5AksdK7FbZfd5aGCc-25" style="edgeStyle=orthogonalEdgeStyle;rounded=0;orthogonalLoop=1;jettySize=auto;html=1;exitX=0.25;exitY=1;exitDx=0;exitDy=0;entryX=0.75;entryY=0;entryDx=0;entryDy=0;" edge="1" parent="1" source="wWJ5AksdK7FbZfd5aGCc-7" target="wWJ5AksdK7FbZfd5aGCc-23">
          <mxGeometry relative="1" as="geometry">
            <Array as="points">
              <mxPoint x="320" y="270" />
              <mxPoint x="190" y="270" />
            </Array>
          </mxGeometry>
        </mxCell>
        <mxCell id="wWJ5AksdK7FbZfd5aGCc-7" value="2号 2M 换能器&lt;div&gt;5°(-3dB)&lt;/div&gt;&lt;div&gt;最大300Vpp&lt;/div&gt;" style="whiteSpace=wrap;html=1;aspect=fixed;" vertex="1" parent="1">
          <mxGeometry x="300" y="150" width="80" height="80" as="geometry" />
        </mxCell>
        <mxCell id="wWJ5AksdK7FbZfd5aGCc-45" style="edgeStyle=orthogonalEdgeStyle;rounded=0;orthogonalLoop=1;jettySize=auto;html=1;exitX=0.5;exitY=0;exitDx=0;exitDy=0;entryX=0.5;entryY=1;entryDx=0;entryDy=0;startArrow=classic;startFill=1;" edge="1" parent="1" source="wWJ5AksdK7FbZfd5aGCc-9" target="wWJ5AksdK7FbZfd5aGCc-1">
          <mxGeometry relative="1" as="geometry" />
        </mxCell>
        <mxCell id="wWJ5AksdK7FbZfd5aGCc-51" style="edgeStyle=orthogonalEdgeStyle;rounded=0;orthogonalLoop=1;jettySize=auto;html=1;exitX=0.5;exitY=1;exitDx=0;exitDy=0;entryX=0.25;entryY=0;entryDx=0;entryDy=0;" edge="1" parent="1" source="wWJ5AksdK7FbZfd5aGCc-9" target="wWJ5AksdK7FbZfd5aGCc-50">
          <mxGeometry relative="1" as="geometry" />
        </mxCell>
        <mxCell id="wWJ5AksdK7FbZfd5aGCc-9" value="RJ45通信接口" style="whiteSpace=wrap;html=1;aspect=fixed;" vertex="1" parent="1">
          <mxGeometry x="380" y="790" width="80" height="80" as="geometry" />
        </mxCell>
        <mxCell id="wWJ5AksdK7FbZfd5aGCc-22" style="edgeStyle=orthogonalEdgeStyle;rounded=0;orthogonalLoop=1;jettySize=auto;html=1;exitX=0.5;exitY=0;exitDx=0;exitDy=0;entryX=0.5;entryY=1;entryDx=0;entryDy=0;" edge="1" parent="1" source="wWJ5AksdK7FbZfd5aGCc-10" target="wWJ5AksdK7FbZfd5aGCc-11">
          <mxGeometry relative="1" as="geometry" />
        </mxCell>
        <mxCell id="wWJ5AksdK7FbZfd5aGCc-52" style="edgeStyle=orthogonalEdgeStyle;rounded=0;orthogonalLoop=1;jettySize=auto;html=1;exitX=0.5;exitY=1;exitDx=0;exitDy=0;entryX=0.75;entryY=0;entryDx=0;entryDy=0;" edge="1" parent="1" source="wWJ5AksdK7FbZfd5aGCc-10" target="wWJ5AksdK7FbZfd5aGCc-50">
          <mxGeometry relative="1" as="geometry" />
        </mxCell>
        <mxCell id="wWJ5AksdK7FbZfd5aGCc-10" value="电源接口" style="whiteSpace=wrap;html=1;aspect=fixed;" vertex="1" parent="1">
          <mxGeometry x="540" y="790" width="80" height="80" as="geometry" />
        </mxCell>
        <mxCell id="wWJ5AksdK7FbZfd5aGCc-46" style="edgeStyle=orthogonalEdgeStyle;rounded=0;orthogonalLoop=1;jettySize=auto;html=1;exitX=0.5;exitY=0;exitDx=0;exitDy=0;entryX=1;entryY=0.5;entryDx=0;entryDy=0;" edge="1" parent="1" source="wWJ5AksdK7FbZfd5aGCc-11" target="wWJ5AksdK7FbZfd5aGCc-3">
          <mxGeometry relative="1" as="geometry" />
        </mxCell>
        <mxCell id="wWJ5AksdK7FbZfd5aGCc-47" style="edgeStyle=orthogonalEdgeStyle;rounded=0;orthogonalLoop=1;jettySize=auto;html=1;exitX=0;exitY=0.5;exitDx=0;exitDy=0;entryX=1;entryY=0.5;entryDx=0;entryDy=0;" edge="1" parent="1" source="wWJ5AksdK7FbZfd5aGCc-11" target="wWJ5AksdK7FbZfd5aGCc-1">
          <mxGeometry relative="1" as="geometry" />
        </mxCell>
        <mxCell id="wWJ5AksdK7FbZfd5aGCc-48" style="edgeStyle=orthogonalEdgeStyle;rounded=0;orthogonalLoop=1;jettySize=auto;html=1;exitX=0.25;exitY=0;exitDx=0;exitDy=0;" edge="1" parent="1" source="wWJ5AksdK7FbZfd5aGCc-11" target="wWJ5AksdK7FbZfd5aGCc-2">
          <mxGeometry relative="1" as="geometry">
            <Array as="points">
              <mxPoint x="560" y="615" />
              <mxPoint x="290" y="615" />
              <mxPoint x="290" y="690" />
            </Array>
          </mxGeometry>
        </mxCell>
        <mxCell id="wWJ5AksdK7FbZfd5aGCc-49" style="edgeStyle=orthogonalEdgeStyle;rounded=0;orthogonalLoop=1;jettySize=auto;html=1;exitX=0.25;exitY=1;exitDx=0;exitDy=0;entryX=0;entryY=0.5;entryDx=0;entryDy=0;" edge="1" parent="1" source="wWJ5AksdK7FbZfd5aGCc-11" target="wWJ5AksdK7FbZfd5aGCc-21">
          <mxGeometry relative="1" as="geometry">
            <Array as="points">
              <mxPoint x="560" y="770" />
              <mxPoint x="120" y="770" />
              <mxPoint x="120" y="540" />
            </Array>
          </mxGeometry>
        </mxCell>
        <mxCell id="wWJ5AksdK7FbZfd5aGCc-11" value="电源管理" style="whiteSpace=wrap;html=1;aspect=fixed;" vertex="1" parent="1">
          <mxGeometry x="540" y="635" width="80" height="80" as="geometry" />
        </mxCell>
        <mxCell id="wWJ5AksdK7FbZfd5aGCc-24" style="edgeStyle=orthogonalEdgeStyle;rounded=0;orthogonalLoop=1;jettySize=auto;html=1;exitX=0.25;exitY=1;exitDx=0;exitDy=0;entryX=0.25;entryY=0;entryDx=0;entryDy=0;" edge="1" parent="1" source="wWJ5AksdK7FbZfd5aGCc-12" target="wWJ5AksdK7FbZfd5aGCc-23">
          <mxGeometry relative="1" as="geometry">
            <Array as="points">
              <mxPoint x="210" y="260" />
              <mxPoint x="150" y="260" />
            </Array>
          </mxGeometry>
        </mxCell>
        <mxCell id="wWJ5AksdK7FbZfd5aGCc-12" value="1号 2M 换能器&lt;div&gt;5°(-3dB)&lt;/div&gt;&lt;div&gt;最大300Vpp&lt;/div&gt;" style="whiteSpace=wrap;html=1;aspect=fixed;" vertex="1" parent="1">
          <mxGeometry x="190" y="150" width="80" height="80" as="geometry" />
        </mxCell>
        <mxCell id="wWJ5AksdK7FbZfd5aGCc-27" style="edgeStyle=orthogonalEdgeStyle;rounded=0;orthogonalLoop=1;jettySize=auto;html=1;exitX=0.25;exitY=1;exitDx=0;exitDy=0;entryX=0.25;entryY=0;entryDx=0;entryDy=0;" edge="1" parent="1" source="wWJ5AksdK7FbZfd5aGCc-13" target="wWJ5AksdK7FbZfd5aGCc-26">
          <mxGeometry relative="1" as="geometry">
            <Array as="points">
              <mxPoint x="440" y="280" />
              <mxPoint x="230" y="280" />
            </Array>
          </mxGeometry>
        </mxCell>
        <mxCell id="wWJ5AksdK7FbZfd5aGCc-13" value="3号 2M 换能器&lt;div&gt;5°(-3dB)&lt;/div&gt;&lt;div&gt;最大300Vpp&lt;/div&gt;" style="whiteSpace=wrap;html=1;aspect=fixed;" vertex="1" parent="1">
          <mxGeometry x="420" y="150" width="80" height="80" as="geometry" />
        </mxCell>
        <mxCell id="wWJ5AksdK7FbZfd5aGCc-28" style="edgeStyle=orthogonalEdgeStyle;rounded=0;orthogonalLoop=1;jettySize=auto;html=1;exitX=0.25;exitY=1;exitDx=0;exitDy=0;entryX=0.75;entryY=0;entryDx=0;entryDy=0;" edge="1" parent="1" source="wWJ5AksdK7FbZfd5aGCc-14" target="wWJ5AksdK7FbZfd5aGCc-26">
          <mxGeometry relative="1" as="geometry">
            <Array as="points">
              <mxPoint x="540" y="290" />
              <mxPoint x="270" y="290" />
            </Array>
          </mxGeometry>
        </mxCell>
        <mxCell id="wWJ5AksdK7FbZfd5aGCc-14" value="4号 2M 换能器&lt;div&gt;5°(-3dB)&lt;/div&gt;&lt;div&gt;最大300Vpp&lt;/div&gt;" style="whiteSpace=wrap;html=1;aspect=fixed;" vertex="1" parent="1">
          <mxGeometry x="520" y="150" width="80" height="80" as="geometry" />
        </mxCell>
        <mxCell id="wWJ5AksdK7FbZfd5aGCc-40" style="edgeStyle=orthogonalEdgeStyle;rounded=0;orthogonalLoop=1;jettySize=auto;html=1;exitX=0;exitY=0.75;exitDx=0;exitDy=0;entryX=0;entryY=0.25;entryDx=0;entryDy=0;" edge="1" parent="1" source="wWJ5AksdK7FbZfd5aGCc-21" target="wWJ5AksdK7FbZfd5aGCc-2">
          <mxGeometry relative="1" as="geometry" />
        </mxCell>
        <mxCell id="wWJ5AksdK7FbZfd5aGCc-41" style="edgeStyle=orthogonalEdgeStyle;rounded=0;orthogonalLoop=1;jettySize=auto;html=1;exitX=0.25;exitY=1;exitDx=0;exitDy=0;entryX=0.25;entryY=0;entryDx=0;entryDy=0;" edge="1" parent="1" source="wWJ5AksdK7FbZfd5aGCc-21" target="wWJ5AksdK7FbZfd5aGCc-2">
          <mxGeometry relative="1" as="geometry" />
        </mxCell>
        <mxCell id="wWJ5AksdK7FbZfd5aGCc-42" style="edgeStyle=orthogonalEdgeStyle;rounded=0;orthogonalLoop=1;jettySize=auto;html=1;exitX=0.75;exitY=1;exitDx=0;exitDy=0;entryX=0.75;entryY=0;entryDx=0;entryDy=0;" edge="1" parent="1" source="wWJ5AksdK7FbZfd5aGCc-21" target="wWJ5AksdK7FbZfd5aGCc-2">
          <mxGeometry relative="1" as="geometry" />
        </mxCell>
        <mxCell id="wWJ5AksdK7FbZfd5aGCc-43" style="edgeStyle=orthogonalEdgeStyle;rounded=0;orthogonalLoop=1;jettySize=auto;html=1;exitX=1;exitY=0.75;exitDx=0;exitDy=0;entryX=1;entryY=0.25;entryDx=0;entryDy=0;" edge="1" parent="1" source="wWJ5AksdK7FbZfd5aGCc-21" target="wWJ5AksdK7FbZfd5aGCc-2">
          <mxGeometry relative="1" as="geometry" />
        </mxCell>
        <mxCell id="wWJ5AksdK7FbZfd5aGCc-21" value="4通道数字可调谐高通和低通滤波器" style="whiteSpace=wrap;html=1;aspect=fixed;" vertex="1" parent="1">
          <mxGeometry x="170" y="500" width="80" height="80" as="geometry" />
        </mxCell>
        <mxCell id="wWJ5AksdK7FbZfd5aGCc-31" style="edgeStyle=orthogonalEdgeStyle;rounded=0;orthogonalLoop=1;jettySize=auto;html=1;exitX=0.25;exitY=1;exitDx=0;exitDy=0;entryX=0;entryY=0.25;entryDx=0;entryDy=0;" edge="1" parent="1" source="wWJ5AksdK7FbZfd5aGCc-23" target="wWJ5AksdK7FbZfd5aGCc-21">
          <mxGeometry relative="1" as="geometry" />
        </mxCell>
        <mxCell id="wWJ5AksdK7FbZfd5aGCc-32" style="edgeStyle=orthogonalEdgeStyle;rounded=0;orthogonalLoop=1;jettySize=auto;html=1;exitX=0.75;exitY=1;exitDx=0;exitDy=0;entryX=0.25;entryY=0;entryDx=0;entryDy=0;" edge="1" parent="1" source="wWJ5AksdK7FbZfd5aGCc-23" target="wWJ5AksdK7FbZfd5aGCc-21">
          <mxGeometry relative="1" as="geometry" />
        </mxCell>
        <mxCell id="wWJ5AksdK7FbZfd5aGCc-23" value="AD605 双路放大器" style="whiteSpace=wrap;html=1;aspect=fixed;" vertex="1" parent="1">
          <mxGeometry x="130" y="360" width="80" height="80" as="geometry" />
        </mxCell>
        <mxCell id="wWJ5AksdK7FbZfd5aGCc-33" style="edgeStyle=orthogonalEdgeStyle;rounded=0;orthogonalLoop=1;jettySize=auto;html=1;exitX=0.25;exitY=1;exitDx=0;exitDy=0;entryX=0.75;entryY=0;entryDx=0;entryDy=0;" edge="1" parent="1" source="wWJ5AksdK7FbZfd5aGCc-26" target="wWJ5AksdK7FbZfd5aGCc-21">
          <mxGeometry relative="1" as="geometry" />
        </mxCell>
        <mxCell id="wWJ5AksdK7FbZfd5aGCc-34" style="edgeStyle=orthogonalEdgeStyle;rounded=0;orthogonalLoop=1;jettySize=auto;html=1;exitX=0.75;exitY=1;exitDx=0;exitDy=0;entryX=1;entryY=0.25;entryDx=0;entryDy=0;" edge="1" parent="1" source="wWJ5AksdK7FbZfd5aGCc-26" target="wWJ5AksdK7FbZfd5aGCc-21">
          <mxGeometry relative="1" as="geometry" />
        </mxCell>
        <mxCell id="wWJ5AksdK7FbZfd5aGCc-26" value="AD605 双路放大器" style="whiteSpace=wrap;html=1;aspect=fixed;" vertex="1" parent="1">
          <mxGeometry x="210" y="360" width="80" height="80" as="geometry" />
        </mxCell>
        <mxCell id="wWJ5AksdK7FbZfd5aGCc-50" value="6芯航插" style="whiteSpace=wrap;html=1;aspect=fixed;" vertex="1" parent="1">
          <mxGeometry x="460" y="910" width="80" height="80" as="geometry" />
        </mxCell>
        <mxCell id="wWJ5AksdK7FbZfd5aGCc-54" style="edgeStyle=orthogonalEdgeStyle;rounded=0;orthogonalLoop=1;jettySize=auto;html=1;exitX=0.5;exitY=1;exitDx=0;exitDy=0;entryX=1;entryY=0.25;entryDx=0;entryDy=0;" edge="1" parent="1" source="wWJ5AksdK7FbZfd5aGCc-53" target="wWJ5AksdK7FbZfd5aGCc-1">
          <mxGeometry relative="1" as="geometry">
            <Array as="points">
              <mxPoint x="710" y="590" />
              <mxPoint x="500" y="590" />
              <mxPoint x="500" y="655" />
            </Array>
          </mxGeometry>
        </mxCell>
        <mxCell id="wWJ5AksdK7FbZfd5aGCc-53" value="环境温度传感器" style="whiteSpace=wrap;html=1;aspect=fixed;" vertex="1" parent="1">
          <mxGeometry x="670" y="230" width="80" height="80" as="geometry" />
        </mxCell>
        <mxCell id="wWJ5AksdK7FbZfd5aGCc-56" style="edgeStyle=orthogonalEdgeStyle;rounded=0;orthogonalLoop=1;jettySize=auto;html=1;exitX=0.5;exitY=0;exitDx=0;exitDy=0;entryX=0.25;entryY=1;entryDx=0;entryDy=0;" edge="1" parent="1" source="wWJ5AksdK7FbZfd5aGCc-55" target="wWJ5AksdK7FbZfd5aGCc-1">
          <mxGeometry relative="1" as="geometry">
            <Array as="points">
              <mxPoint x="290" y="760" />
              <mxPoint x="400" y="760" />
            </Array>
          </mxGeometry>
        </mxCell>
        <mxCell id="wWJ5AksdK7FbZfd5aGCc-55" value="存储拓展" style="whiteSpace=wrap;html=1;aspect=fixed;" vertex="1" parent="1">
          <mxGeometry x="250" y="790" width="80" height="80" as="geometry" />
        </mxCell>
        <mxCell id="wWJ5AksdK7FbZfd5aGCc-58" value="内存拓展" style="whiteSpace=wrap;html=1;aspect=fixed;" vertex="1" parent="1">
          <mxGeometry x="130" y="790" width="80" height="80" as="geometry" />
        </mxCell>
      </root>
    </mxGraphModel>
  </diagram>
</mxfile>
